<?xml version="1.0" standalone="no"?>
<!DOCTYPE svg PUBLIC "-//W3C//DTD SVG 20010904//EN"
 "http://www.w3.org/TR/2001/REC-SVG-20010904/DTD/svg10.dtd">
<svg version="1.0" xmlns="http://www.w3.org/2000/svg"
 width="2048.000000pt" height="2048.000000pt" viewBox="0 0 2048.000000 2048.000000"
 preserveAspectRatio="xMidYMid meet">

<g transform="translate(0.000000,2048.000000) scale(0.100000,-0.100000)"
fill="#000000" stroke="none">
<path d="M10091 18708 c-28 -10 -44 -62 -38 -123 4 -41 2 -55 -9 -59 -24 -9
-344 -55 -436 -62 l-86 -7 -18 59 c-31 104 -24 101 -231 75 -98 -13 -281 -40
-408 -61 -271 -45 -269 -44 -280 -157 -3 -37 -7 -77 -8 -87 -2 -16 -24 -25
-127 -52 -69 -18 -155 -42 -191 -52 -89 -27 -106 -17 -148 85 -40 93 -47 103
-77 103 -41 0 -334 -110 -494 -185 -85 -40 -186 -83 -225 -95 -106 -34 -125
-46 -125 -78 0 -15 8 -60 17 -101 11 -45 14 -76 8 -78 -6 -2 -93 -48 -195
-103 l-185 -99 -65 69 -65 69 -43 -11 c-84 -21 -316 -144 -445 -237 -71 -50
-155 -110 -189 -132 -68 -47 -69 -51 -29 -163 l21 -60 -22 -24 c-50 -53 -159
-134 -281 -207 l-128 -78 -52 59 c-113 128 -128 131 -229 51 -117 -94 -523
-488 -526 -512 -2 -13 16 -55 42 -100 26 -42 46 -80 46 -84 0 -4 -19 -26 -42
-48 -24 -23 -106 -104 -183 -182 -76 -78 -146 -141 -154 -141 -8 0 -35 17 -60
38 -111 93 -99 100 -329 -189 -77 -98 -179 -219 -226 -270 -48 -52 -89 -104
-93 -117 -5 -23 -1 -32 64 -118 l23 -31 -68 -114 c-38 -63 -96 -158 -131 -211
l-63 -97 -69 35 c-47 24 -78 34 -93 30 -35 -9 -161 -204 -264 -411 -50 -99
-113 -219 -140 -268 -61 -109 -60 -123 19 -185 33 -25 59 -50 59 -56 0 -20
-177 -350 -190 -354 -6 -2 -43 3 -81 12 -87 22 -98 16 -143 -77 -50 -101 -246
-684 -246 -730 0 -57 21 -88 99 -141 39 -27 71 -52 71 -55 0 -3 -5 -22 -11
-41 -5 -19 -27 -101 -48 -181 -51 -193 -53 -195 -183 -190 -91 3 -98 2 -121
-21 -18 -18 -26 -40 -31 -89 -4 -35 -13 -89 -21 -119 -8 -30 -24 -118 -35
-194 -12 -77 -32 -196 -46 -265 -27 -141 -30 -204 -12 -219 13 -10 96 -36 152
-47 l29 -6 -6 -157 c-4 -87 -10 -192 -13 -233 l-7 -76 -87 -6 c-108 -8 -137
-19 -151 -54 -8 -20 -7 -139 1 -413 6 -212 13 -399 16 -417 8 -54 44 -73 134
-73 l78 0 6 -72 c3 -40 8 -116 11 -168 3 -52 8 -120 12 -151 l5 -57 -65 -21
c-36 -12 -77 -31 -91 -42 -23 -18 -25 -25 -20 -67 3 -26 17 -94 31 -152 29
-125 49 -245 58 -355 9 -99 42 -278 60 -321 20 -47 46 -58 132 -50 l73 6 30
-103 c17 -56 46 -150 65 -210 37 -123 41 -113 -58 -142 -64 -19 -82 -40 -72
-88 11 -55 216 -682 246 -753 32 -77 65 -89 163 -59 90 27 87 29 165 -113 65
-119 151 -302 151 -322 0 -5 -26 -23 -57 -41 -74 -42 -93 -63 -93 -99 0 -31
70 -171 227 -458 97 -178 160 -270 188 -278 12 -3 52 10 97 31 42 19 81 35 86
35 16 0 212 -277 261 -367 11 -21 6 -29 -49 -88 -35 -38 -60 -73 -60 -86 0
-35 37 -78 404 -473 115 -122 208 -206 231 -206 7 0 38 21 69 46 31 25 61 44
66 42 18 -6 300 -279 300 -290 0 -6 -13 -32 -29 -57 -16 -25 -35 -65 -42 -88
-10 -37 -10 -46 6 -70 42 -64 141 -164 256 -258 68 -55 162 -138 209 -184 90
-90 172 -151 203 -151 10 0 47 27 81 60 35 33 66 60 69 60 14 0 312 -190 385
-245 1 -1 -18 -40 -43 -86 -50 -95 -55 -126 -22 -157 41 -38 188 -121 444
-248 138 -69 254 -132 257 -140 3 -8 14 -14 25 -14 17 0 48 33 156 167 l20 25
120 -54 c66 -30 166 -79 221 -109 l101 -54 -24 -70 c-34 -100 -36 -108 -21
-127 7 -9 81 -42 163 -72 83 -30 200 -74 260 -99 159 -65 314 -118 352 -119
40 -2 66 20 105 89 16 28 35 56 43 63 10 8 70 -4 252 -50 131 -34 241 -65 245
-68 4 -4 -3 -44 -15 -89 -21 -79 -21 -82 -3 -101 21 -24 25 -25 201 -51 131
-20 359 -69 485 -105 30 -9 80 -16 112 -16 66 0 72 6 108 102 l21 58 227 0
c125 0 237 -3 248 -6 18 -5 22 -16 28 -65 7 -74 27 -113 63 -127 33 -14 733
-36 801 -26 27 4 55 16 69 30 20 20 23 33 23 103 l0 79 53 12 c28 6 115 17
192 25 77 7 159 17 181 20 23 4 44 3 47 -2 3 -5 15 -52 27 -103 11 -52 26
-101 34 -108 24 -24 126 -15 294 27 86 22 211 51 277 65 184 38 269 59 283 69
6 5 12 23 12 40 0 16 5 69 12 118 l11 88 41 6 c23 4 101 18 174 31 73 13 153
25 177 27 l46 2 24 -58 c28 -71 51 -97 81 -97 51 0 402 127 579 210 50 23 115
51 145 62 79 30 90 42 90 102 0 28 -7 73 -15 100 -8 28 -12 53 -8 57 18 15
295 120 383 144 77 22 96 24 103 13 4 -7 22 -38 40 -68 18 -30 44 -61 58 -69
26 -14 32 -12 142 43 64 32 146 83 184 112 81 65 158 117 316 214 139 86 140
88 71 193 -40 60 -44 71 -30 79 9 5 49 31 88 59 89 61 163 109 248 159 l65 39
66 -69 c36 -39 72 -70 80 -70 30 1 59 25 301 245 60 55 128 115 151 133 82 65
217 206 217 227 0 12 -29 61 -65 110 -36 49 -65 92 -65 95 0 15 288 258 347
293 18 11 63 -13 115 -60 26 -24 55 -43 65 -43 28 0 76 39 133 108 28 34 54
62 58 62 4 0 25 23 47 51 65 83 204 251 245 294 50 53 120 159 120 182 0 10
-30 46 -67 80 l-68 62 34 65 c19 36 51 86 70 110 20 25 64 81 99 126 35 44 67
80 71 80 5 0 41 -25 79 -55 43 -34 80 -55 96 -55 36 0 65 43 169 248 209 411
278 556 275 581 -2 19 -18 34 -68 62 -36 21 -69 40 -74 42 -15 5 217 425 243
441 4 3 26 -4 50 -15 54 -24 83 -24 104 -1 37 41 114 232 209 516 80 240 98
304 90 321 -6 14 -50 43 -111 74 -56 29 -101 57 -101 63 0 6 25 73 55 148 30
76 60 160 65 188 18 81 23 85 107 72 54 -9 77 -8 93 0 33 18 68 105 86 215 8
55 24 144 35 197 10 53 19 114 19 135 0 21 16 92 35 158 19 66 35 129 35 141
0 30 -28 51 -106 78 -38 13 -76 27 -85 30 -18 8 -17 32 6 271 9 83 16 166 18
185 l2 35 92 5 c77 4 96 9 114 27 l22 21 -10 417 c-12 490 -1 453 -131 464
-45 4 -85 10 -89 15 -10 9 -21 154 -22 287 -1 53 -6 120 -11 149 -12 62 -9 65
59 75 89 12 117 24 130 52 13 27 8 57 -55 353 -13 63 -31 162 -39 219 -9 57
-18 107 -20 112 -3 4 -10 34 -16 66 -18 103 -5 94 -138 87 l-118 -7 4 30 c3
16 -4 61 -15 99 -12 38 -24 92 -28 119 -4 28 -15 79 -25 114 -10 36 -18 66
-16 67 1 1 35 18 74 38 111 56 118 76 66 196 -13 30 -67 172 -120 315 -103
283 -142 365 -181 391 -23 15 -32 16 -71 4 -102 -29 -89 -38 -168 122 -40 79
-88 187 -108 241 -41 111 -42 106 39 164 61 43 76 61 76 85 0 29 -87 204 -140
284 -27 40 -69 109 -95 153 -62 110 -131 215 -167 257 -36 41 -67 43 -123 9
-22 -14 -47 -25 -55 -25 -23 1 -63 39 -109 105 -23 33 -69 96 -102 140 -105
140 -102 115 -20 199 39 41 71 81 71 89 0 18 -93 130 -223 267 -54 58 -120
137 -147 175 -47 70 -180 223 -206 238 -20 12 -44 2 -104 -43 -62 -46 -55 -49
-154 57 -37 40 -105 104 -151 143 l-84 71 25 52 c13 29 24 61 24 73 0 22 -35
58 -125 127 -33 25 -89 75 -125 112 -36 37 -101 94 -145 128 -44 33 -121 96
-171 139 -51 43 -100 78 -110 78 -11 0 -42 -25 -70 -57 l-51 -57 -74 52 c-101
71 -312 248 -320 270 -3 9 5 39 17 67 36 77 32 103 -24 137 -47 28 -104 64
-277 176 -152 98 -436 252 -465 252 -11 0 -22 -12 -29 -32 -16 -47 -71 -128
-86 -128 -7 0 -97 38 -200 85 -103 47 -191 85 -196 85 -19 0 -17 19 6 63 48
89 31 122 -85 165 -30 11 -120 49 -200 85 -80 35 -179 77 -220 91 -41 15 -123
48 -183 73 -70 29 -115 43 -130 39 -21 -6 -73 -74 -98 -128 -11 -25 -18 -28
-58 -28 -25 0 -86 11 -136 24 -49 13 -126 31 -170 41 -44 9 -91 18 -104 21
-24 5 -24 5 -18 113 4 86 2 113 -9 129 -39 57 -428 131 -703 135 -176 3 -175
4 -190 -108 -6 -44 -15 -83 -20 -88 -5 -5 -51 -6 -103 -3 -51 3 -157 9 -235
12 l-143 6 0 32 c0 40 -24 134 -47 183 l-18 38 -408 0 c-224 0 -416 -3 -426
-7z m754 -1563 c179 -7 427 -31 635 -61 2112 -302 3993 -1577 5050 -3421 518
-903 808 -1839 902 -2913 17 -191 17 -849 0 -1040 -97 -1112 -406 -2081 -955
-2995 -922 -1536 -2425 -2660 -4162 -3111 -403 -104 -766 -165 -1230 -206
-218 -19 -867 -16 -1105 5 -1202 108 -2294 489 -3280 1142 -1534 1017 -2600
2595 -2969 4395 -146 716 -175 1505 -80 2240 219 1708 1077 3270 2404 4377
1165 972 2646 1539 4160 1592 211 8 345 7 630 -4z"/>
<path d="M10125 17034 c-694 -44 -1303 -166 -1929 -389 -489 -174 -1030 -447
-1466 -740 -1220 -821 -2128 -2007 -2604 -3403 -344 -1010 -444 -2066 -295
-3132 305 -2185 1672 -4110 3634 -5116 1807 -926 3885 -1002 5742 -208 1431
612 2614 1722 3317 3114 411 813 636 1615 718 2560 16 190 16 812 0 1000 -97
1109 -402 2074 -943 2987 -478 805 -1144 1529 -1910 2074 -446 317 -919 575
-1424 776 -626 250 -1262 399 -1965 463 -123 11 -758 21 -875 14z m672 -380
c16 -5 21 -14 21 -37 0 -18 4 -106 8 -197 6 -142 10 -170 29 -207 22 -39 22
-50 18 -215 -2 -95 -17 -965 -34 -1934 -24 -1463 -32 -1770 -44 -1820 -14 -56
-235 -516 -268 -559 -14 -18 -17 -18 -30 -5 -26 27 -279 519 -299 583 -24 76
-23 37 -79 2256 -38 1532 -40 1656 -25 1682 13 23 16 62 16 242 l0 216 43 4
c56 7 616 -2 644 -9z m-975 -79 c4 -33 10 -116 14 -185 5 -110 9 -130 32 -170
l26 -45 27 -1290 c47 -2252 47 -2176 11 -2132 -20 24 -329 624 -355 687 -14
36 -32 90 -41 120 -9 30 -106 591 -216 1245 -110 655 -202 1196 -205 1203 -2
7 2 30 11 52 15 36 14 48 -16 212 -17 95 -35 190 -40 211 -6 27 -5 39 3 42 96
32 638 116 717 111 23 -1 26 -6 32 -61z m1638 1 c227 -40 318 -59 329 -72 7
-9 0 -171 -15 -312 -6 -59 -4 -79 11 -113 l19 -40 -163 -1192 c-90 -656 -170
-1217 -177 -1247 -8 -30 -24 -80 -36 -110 -26 -67 -360 -737 -381 -765 -15
-19 -16 -19 -23 -1 -4 10 3 790 15 1732 21 1673 22 1715 41 1751 18 34 20 57
20 227 l0 189 78 -6 c42 -3 169 -22 282 -41z m-2648 -229 c15 -56 34 -140 43
-186 12 -61 24 -93 45 -120 15 -20 30 -45 34 -56 10 -37 296 -1801 296 -1828
0 -15 -4 -27 -8 -27 -10 0 -52 72 -129 220 -335 642 -747 1427 -753 1435 -4 6
-10 35 -12 65 -4 43 -17 78 -62 160 -32 58 -70 135 -86 172 l-29 68 21 11 c66
35 542 188 588 189 23 0 27 -7 52 -103z m3465 33 c184 -57 404 -136 427 -153
15 -11 14 -18 -7 -82 -13 -39 -43 -107 -66 -152 -33 -67 -41 -93 -41 -138 0
-53 -18 -91 -404 -863 -222 -444 -411 -816 -420 -827 -15 -19 -15 -18 -16 20
0 22 52 441 117 930 108 825 118 892 140 922 21 27 27 56 44 195 10 90 19 171
19 181 0 27 35 22 207 -33z m-4382 -269 c3 -16 23 -54 44 -83 20 -29 57 -91
82 -137 25 -47 59 -96 79 -112 19 -15 43 -36 53 -46 10 -10 214 -396 453 -858
659 -1271 718 -1389 743 -1480 30 -111 153 -859 149 -909 l-3 -41 -36 45 c-20
25 -242 344 -494 710 -997 1447 -1371 1989 -1435 2080 -50 71 -68 106 -73 139
-4 35 -29 79 -115 205 -59 89 -112 166 -115 173 -9 14 55 53 262 161 160 84
370 182 388 182 6 0 14 -13 18 -29z m5288 -91 c171 -83 391 -203 418 -227 15
-13 14 -19 -13 -71 -17 -31 -59 -100 -95 -153 -53 -78 -66 -105 -72 -152 -5
-38 -18 -71 -38 -100 -16 -23 -423 -609 -903 -1302 -480 -693 -883 -1271 -896
-1285 l-24 -25 0 45 c0 56 64 546 86 655 8 44 32 119 52 166 20 48 267 550
547 1116 422 851 515 1032 540 1048 31 20 57 67 148 263 37 78 53 102 68 102
10 0 92 -36 182 -80z m-6185 -400 c6 -16 30 -51 54 -77 24 -27 71 -86 103
-132 45 -63 71 -89 106 -107 44 -22 93 -91 1025 -1456 538 -788 1039 -1521
1112 -1628 198 -289 203 -300 252 -603 36 -228 37 -237 9 -237 -30 0 -250 114
-318 166 -73 55 -42 17 -962 1144 -420 514 -994 1215 -1274 1558 -424 518
-512 630 -522 668 -9 34 -37 76 -114 167 l-102 121 50 46 c108 99 524 399 555
400 9 0 20 -13 26 -30z m6965 -52 c161 -107 453 -329 484 -366 15 -18 -24 -92
-102 -197 -77 -103 -95 -136 -95 -176 0 -33 -110 -182 -1126 -1515 -619 -814
-1146 -1498 -1171 -1521 -32 -29 -122 -79 -290 -163 -134 -66 -248 -120 -254
-120 -16 0 -10 65 31 375 35 259 44 308 69 360 16 33 300 456 633 940 332 484
782 1140 1000 1457 218 317 402 586 408 597 6 12 26 27 44 35 38 16 74 62 186
238 41 64 79 117 83 117 4 1 49 -27 100 -61z m-7772 -580 c13 -13 53 -58 88
-101 49 -59 78 -84 120 -105 53 -26 82 -60 614 -717 307 -379 832 -1027 1166
-1440 334 -412 615 -761 624 -775 22 -32 21 -40 -4 -40 -28 0 -857 421 -949
483 -58 38 -282 257 -967 944 -491 493 -893 901 -893 909 0 7 5 16 10 19 37
23 -8 77 -252 301 l-76 71 146 155 c171 181 315 318 335 318 8 0 25 -10 38
-22z m8708 -195 c108 -109 218 -224 245 -255 l48 -57 -39 -47 c-21 -25 -80
-91 -130 -146 -51 -55 -95 -110 -98 -124 -3 -13 -7 -34 -10 -46 -2 -13 -361
-378 -847 -863 -767 -765 -850 -845 -923 -887 -129 -74 -744 -372 -752 -364
-4 4 -2 16 5 26 7 11 448 597 980 1302 532 706 978 1297 990 1315 13 19 35 34
53 38 24 6 48 30 116 123 47 65 97 132 110 150 13 17 31 32 39 32 9 0 105 -89
213 -197z m-9389 -532 c3 -3 30 -26 60 -51 30 -25 86 -76 124 -113 54 -52 80
-70 115 -79 43 -11 82 -48 511 -482 783 -794 880 -893 880 -905 0 -6 -7 -11
-16 -11 -8 0 -407 196 -885 436 -743 373 -874 442 -897 472 -21 27 -62 53
-179 109 -124 60 -151 77 -146 91 17 46 215 334 322 469 53 67 70 81 86 76 11
-3 22 -9 25 -12z m9977 -143 c115 -154 227 -314 248 -354 14 -28 14 -28 -43
-67 -31 -21 -100 -60 -153 -87 -53 -27 -106 -62 -118 -77 -12 -15 -30 -38 -39
-49 -15 -19 -1504 -763 -1561 -779 -19 -6 -22 -4 -14 8 4 9 283 294 618 634
421 426 618 620 637 624 44 10 69 31 188 158 62 67 119 121 125 121 7 0 57
-60 112 -132z m497 -767 c96 -174 246 -484 246 -508 0 -24 -58 -56 -176 -99
-123 -44 -147 -57 -163 -88 -10 -17 -35 -33 -80 -51 -92 -35 -3130 -1090
-3163 -1099 -19 -4 -28 -3 -28 6 0 21 670 686 735 730 33 22 519 270 1080 551
871 436 1026 510 1058 508 30 -2 69 14 205 84 92 48 171 91 177 96 21 20 35 3
109 -130z m-10993 90 c30 -10 97 -39 149 -64 73 -35 110 -46 160 -50 63 -4
103 -24 1177 -570 612 -311 1148 -590 1190 -618 90 -60 573 -534 573 -562 0
-10 -8 -17 -18 -17 -11 0 -725 236 -1588 524 -1283 429 -1576 530 -1609 556
-22 17 -56 41 -75 53 -37 24 -232 92 -291 102 -65 12 -65 12 -3 151 109 248
249 514 269 514 7 0 36 -9 66 -19z m6339 -861 c-17 -122 -39 -243 -49 -270
-17 -45 -190 -309 -234 -357 -11 -12 -24 -20 -28 -17 -14 9 -10 195 5 255 16
59 268 586 308 641 l23 33 3 -32 c2 -17 -11 -131 -28 -253z m-1620 158 c11
-18 70 -131 130 -250 78 -154 115 -238 125 -285 20 -95 21 -433 1 -433 -15 0
-101 120 -139 195 -14 28 -32 75 -41 105 -16 57 -116 640 -116 678 0 32 17 27
40 -10z m6655 -215 c54 -128 205 -610 205 -653 0 -21 -68 -54 -199 -96 -87
-27 -110 -39 -140 -71 -35 -38 -44 -41 -631 -222 -327 -101 -1119 -345 -1760
-543 -781 -241 -1185 -361 -1225 -365 -67 -5 -781 99 -799 117 -14 14 402 430
463 463 25 14 843 306 1816 650 974 344 1782 630 1797 637 21 10 33 10 56 1
32 -14 70 -3 277 78 55 21 106 39 112 40 7 0 20 -16 28 -36z m-11742 -23 c49
-11 123 -31 165 -45 60 -20 94 -25 152 -23 l75 3 1290 -439 c710 -241 1495
-507 1745 -592 250 -85 484 -169 520 -186 53 -27 102 -69 265 -230 208 -205
244 -248 222 -266 -11 -10 -237 -52 -353 -67 -88 -11 -184 10 -744 165 -300
83 -835 231 -1190 330 -355 98 -958 265 -1340 370 -532 147 -701 198 -720 215
-39 35 -56 41 -236 86 -93 23 -173 45 -177 49 -10 9 50 239 119 451 68 210 69
213 97 205 12 -4 62 -15 110 -26z m8088 -597 c-17 -31 -545 -549 -581 -571
-36 -21 -292 -112 -316 -112 -8 0 -14 5 -14 10 0 16 232 319 274 360 35 33
603 328 634 330 9 0 10 -5 3 -17z m-1514 -298 c-16 -117 -31 -195 -42 -211
-20 -31 -116 -79 -140 -70 -15 5 -17 18 -13 95 5 105 19 138 129 292 48 68 74
98 81 91 7 -7 2 -71 -15 -197z m-2429 -12 c338 -173 369 -191 438 -256 41 -39
82 -83 90 -98 14 -29 14 -29 -14 -29 -38 0 -460 143 -526 177 -56 30 -406 367
-406 391 0 26 46 5 418 -185z m1545 -17 c37 -74 67 -146 67 -160 0 -39 -51
-136 -72 -136 -22 0 -71 70 -92 132 -18 53 -33 279 -22 324 l8 29 21 -27 c12
-15 52 -88 90 -162z m482 70 c-7 -58 -49 -143 -100 -201 -28 -32 -36 -37 -44
-26 -10 16 9 71 60 173 64 128 97 149 84 54z m-6348 -98 c100 -25 132 -29 170
-22 27 4 59 7 73 5 13 -1 535 -146 1160 -322 2428 -685 2231 -628 2237 -646 2
-6 -11 -16 -29 -22 -36 -11 -531 -102 -693 -126 -183 -27 -219 -24 -865 75
-212 32 -718 109 -1124 170 -660 100 -744 115 -776 136 -21 14 -65 29 -101 35
-35 6 -78 18 -95 29 -36 21 -167 50 -224 50 -22 0 -41 4 -44 9 -12 19 55 522
85 633 l10 38 47 -6 c26 -3 102 -19 169 -36z m12202 -15 c25 -96 91 -532 91
-603 0 -36 -22 -44 -199 -75 -118 -21 -137 -27 -165 -53 l-31 -30 -1135 -167
c-624 -91 -1193 -175 -1265 -186 -183 -27 -240 -24 -542 22 -265 40 -307 49
-284 63 32 20 3101 978 3131 978 19 -1 49 -2 65 -2 17 -1 89 18 160 43 72 24
138 45 147 46 12 1 20 -11 27 -36z m-6722 -95 c34 -38 55 -88 60 -148 7 -69
-7 -84 -43 -48 -33 33 -72 218 -46 218 5 0 18 -10 29 -22z m1703 -75 c0 -3
-42 -62 -92 -129 -87 -115 -150 -174 -186 -174 -20 0 -10 141 13 176 9 13 63
48 123 79 99 50 142 65 142 48z m-507 -255 c6 -17 -2 -76 -15 -110 -11 -29
-70 -63 -94 -54 -17 6 -19 87 -4 117 11 19 74 58 97 59 6 0 13 -6 16 -12z
m-1763 -149 c134 -47 191 -72 218 -95 25 -22 34 -36 27 -42 -14 -14 -158 -42
-216 -42 -43 0 -54 5 -106 48 -53 44 -157 156 -178 191 -15 25 62 7 255 -60z
m2410 3 c0 -4 -52 -59 -115 -121 l-115 -114 -45 6 c-25 2 -49 7 -52 11 -10 10
16 51 66 107 37 41 62 57 131 84 83 34 130 43 130 27z m-1168 -56 c158 -30
238 -73 345 -184 130 -136 191 -295 180 -463 -12 -169 -113 -379 -233 -486
-87 -76 -285 -150 -377 -140 -181 20 -208 26 -300 71 -99 49 -207 135 -207
166 0 10 -5 22 -11 25 -20 13 -102 150 -121 202 -13 37 -18 81 -18 147 0 83 4
108 34 190 53 148 97 220 195 314 95 93 128 113 240 147 89 28 170 31 273 11z
m-812 -301 c32 -38 -26 -82 -124 -92 -52 -5 -57 -4 -87 26 -39 40 -32 50 48
67 81 17 148 17 163 -1z m6984 -197 c5 -108 5 -245 1 -304 l-7 -107 -87 7
c-47 3 -119 9 -159 12 -59 5 -79 3 -105 -11 -31 -16 -49 -14 -932 120 -1041
157 -1025 155 -1025 165 0 10 -52 2 955 155 490 74 904 138 920 143 22 6 38 3
61 -10 29 -17 34 -17 170 6 76 13 153 23 169 23 l30 -2 9 -197z m-12406 165
c126 -15 137 -15 185 2 l52 17 715 -111 c986 -155 1132 -179 1166 -192 l29
-11 -33 -14 c-18 -8 -94 -25 -170 -38 -75 -14 -492 -88 -927 -166 -670 -120
-798 -140 -845 -134 -71 9 -88 8 -255 -26 -77 -16 -144 -25 -148 -20 -15 14
-26 201 -27 456 0 138 2 253 5 256 7 7 99 0 253 -19z m6959 -39 c-3 -3 -12 -4
-19 -1 -8 3 -5 6 6 6 11 1 17 -2 13 -5z m-2037 -19 c34 -18 56 -50 39 -60 -15
-10 -146 24 -160 42 -10 12 -10 16 2 24 22 14 87 11 119 -6z m2586 -50 c131
-20 240 -37 242 -40 12 -11 -18 -25 -109 -51 -115 -32 -106 -33 -330 37 -78
24 -99 35 -97 47 2 13 39 41 55 42 1 0 109 -16 239 -35z m-3092 -85 c64 -16
132 -37 153 -45 33 -14 35 -17 21 -31 -19 -19 -242 -88 -340 -104 -84 -15
-138 -11 -407 30 -233 35 -293 49 -288 63 5 15 39 23 312 72 305 55 386 57
549 15z m4080 -61 c126 -19 145 -23 134 -34 -6 -7 -436 -72 -529 -81 -87 -9
-200 18 -177 41 8 8 293 94 323 98 38 4 89 0 249 -24z m-1385 -63 c19 -7 36
-17 38 -22 2 -6 -30 -21 -71 -34 -62 -19 -78 -21 -91 -10 -20 17 -19 29 7 57
24 26 63 29 117 9z m-2030 -75 c23 -14 0 -55 -49 -87 -38 -25 -45 -27 -123
-21 -90 7 -157 23 -157 37 0 39 283 100 329 71z m5621 -185 c657 -98 1215
-179 1239 -181 29 -3 48 -11 58 -24 18 -26 56 -36 228 -56 77 -10 144 -21 149
-26 12 -10 -17 -263 -55 -489 -42 -254 -34 -236 -105 -232 -32 1 -104 16 -158
32 -109 33 -134 35 -180 19 -28 -9 -200 41 -1675 491 -904 275 -1653 506
-1663 511 -11 6 -17 13 -14 16 2 3 173 31 378 64 327 51 387 58 488 55 84 -3
438 -51 1310 -180z m-7720 164 c170 -21 665 -102 683 -112 16 -8 17 -12 6 -23
-15 -15 -136 -52 -2019 -620 -668 -202 -1234 -373 -1256 -380 -23 -7 -64 -10
-93 -7 -42 4 -78 -4 -216 -49 -115 -37 -169 -49 -176 -42 -16 16 -95 428 -114
603 l-7 56 79 22 c43 12 121 31 174 41 76 15 108 27 149 55 29 20 57 36 62 36
6 0 544 93 1197 206 652 113 1213 209 1246 214 89 11 190 11 285 0z m2371 -90
c25 -14 24 -36 -1 -50 -44 -24 -85 24 -42 49 21 13 20 13 43 1z m4534 -647
c1001 -300 1837 -547 1858 -550 28 -4 42 -13 52 -32 17 -35 27 -39 233 -96
148 -42 172 -51 172 -68 0 -44 -152 -532 -186 -598 l-13 -27 -68 13 c-37 8
-108 28 -157 44 -98 34 -122 37 -160 20 -18 -9 -33 -8 -58 0 -49 18 -2718 943
-3338 1157 -294 102 -552 195 -572 207 -43 26 -398 353 -398 367 0 6 4 10 8
10 4 0 154 22 332 49 179 27 339 52 355 54 17 2 50 2 75 0 25 -3 864 -250
1865 -550z m-5327 493 c136 -22 208 -38 218 -48 15 -15 8 -25 -74 -114 -49
-55 -161 -169 -248 -254 -194 -189 -204 -195 -564 -320 -146 -50 -386 -134
-535 -185 -2339 -812 -2721 -941 -2766 -937 -36 3 -75 -7 -198 -52 -85 -31
-158 -56 -162 -56 -20 0 -112 234 -188 480 -65 209 -65 209 -44 216 10 3 43
16 73 29 30 13 99 38 154 55 75 24 108 41 140 70 40 37 64 45 1896 588 1020
303 1866 553 1880 555 79 13 229 4 418 -27z m625 -118 c13 -20 -22 -76 -98
-154 -56 -57 -104 -85 -209 -120 -140 -48 -139 -30 7 122 149 156 177 176 241
172 32 -2 52 -9 59 -20z m1824 -15 c19 -21 44 -50 55 -65 18 -26 18 -28 1 -27
-10 0 -52 13 -93 28 -61 22 -77 33 -85 55 -11 33 3 46 54 46 26 0 41 -8 68
-37z m-314 -192 c10 -10 33 -169 25 -176 -8 -8 -100 39 -117 59 -16 19 -7 79
16 114 12 19 20 22 41 17 15 -3 30 -10 35 -14z m-967 -26 c18 -45 -50 -117
-123 -131 -82 -15 -55 93 32 131 41 18 84 18 91 0z m1404 -118 l175 -62 133
-183 c74 -100 132 -186 130 -191 -3 -7 -589 266 -605 283 -8 8 -32 143 -32
184 -1 19 4 32 12 31 6 0 91 -28 187 -62z m-1800 -47 c0 -83 -35 -119 -180
-189 -103 -50 -150 -62 -150 -40 0 19 85 131 137 180 57 56 116 88 161 89 31
0 32 -1 32 -40z m-562 -162 c4 -21 -147 -215 -222 -286 -67 -62 -180 -124
-473 -261 -137 -64 -163 -71 -163 -46 0 27 428 446 494 485 59 34 332 133 351
127 6 -2 11 -10 13 -19z m1256 -77 c25 -49 47 -100 48 -113 1 -13 -20 -62 -46
-111 -89 -162 -106 -165 -106 -19 0 160 26 332 50 332 4 0 29 -40 54 -89z
m670 28 c36 -17 68 -34 71 -38 6 -11 76 -463 72 -468 -5 -4 -198 271 -224 320
-19 34 -23 58 -23 129 0 104 1 105 104 57z m-1048 -6 c-25 -66 -119 -193 -143
-193 -13 0 -15 9 -9 58 7 63 26 96 76 130 41 27 85 30 76 5z m3160 -309 c844
-288 1060 -362 1389 -474 127 -42 469 -159 760 -259 292 -99 538 -181 548
-181 10 0 21 -10 26 -23 14 -36 25 -41 199 -98 104 -33 162 -57 162 -66 0 -32
-247 -536 -292 -595 -17 -24 -57 -13 -201 54 -97 45 -114 50 -155 44 -45 -6
-73 7 -1211 550 -641 306 -1189 573 -1217 593 -28 20 -188 162 -355 316 -378
347 -427 395 -413 395 6 0 348 -115 760 -256z m-803 7 c92 -84 166 -155 164
-158 -8 -7 -161 67 -186 90 -27 25 -151 190 -171 227 -13 24 -12 24 6 10 10
-8 95 -84 187 -169z m-651 -2 c189 -89 377 -178 418 -199 l76 -38 989 -1363
c545 -750 1002 -1376 1017 -1391 21 -23 26 -35 21 -61 -4 -30 6 -47 102 -178
59 -79 122 -159 139 -177 25 -26 28 -36 20 -50 -22 -34 -446 -353 -531 -399
l-33 -17 -36 34 c-20 19 -73 85 -119 146 -72 96 -88 112 -118 118 -32 6 -47
24 -160 179 -117 162 -1132 1572 -1750 2431 l-280 389 -53 346 c-53 339 -59
391 -49 391 3 0 159 -73 347 -161z m-2084 99 c4 -44 -33 -303 -53 -383 -8 -30
-27 -83 -43 -117 -16 -35 -385 -596 -821 -1248 -436 -652 -906 -1355 -1045
-1562 -198 -298 -258 -381 -285 -395 -25 -13 -60 -58 -132 -167 -54 -82 -100
-154 -102 -159 -2 -6 -14 -7 -28 -4 -48 12 -492 320 -576 400 l-32 30 26 46
c15 25 54 84 89 131 68 92 80 116 89 173 5 30 110 173 523 710 285 369 782
1016 1106 1437 323 421 616 793 651 827 35 33 83 73 108 87 95 56 483 237 502
234 15 -2 21 -12 23 -40z m-1373 -28 c14 -22 -515 -557 -620 -626 -98 -66
-133 -84 -535 -277 -212 -102 -675 -325 -1029 -496 -541 -261 -652 -311 -688
-311 -34 0 -77 -17 -201 -79 -89 -45 -164 -76 -170 -72 -29 18 -312 551 -312
587 0 17 86 58 195 94 49 17 82 35 116 67 44 42 64 50 380 158 184 62 712 242
1174 400 1341 458 1658 565 1671 565 7 0 16 -4 19 -10z m1811 -136 c11 -41 -6
-372 -23 -454 -8 -41 -26 -102 -40 -135 -34 -81 -279 -542 -310 -583 -49 -65
-49 -32 1 320 51 361 63 421 105 512 48 104 228 366 251 366 6 0 13 -12 16
-26z m604 -214 c60 -121 101 -216 104 -242 3 -24 15 -281 26 -573 11 -291 32
-807 45 -1145 14 -338 38 -952 55 -1365 16 -412 31 -775 33 -805 3 -36 -2 -75
-14 -113 -17 -52 -17 -74 -9 -205 5 -81 5 -151 1 -155 -25 -25 -703 -35 -763
-12 -13 5 -15 12 -9 23 4 10 7 96 6 192 -2 151 -5 182 -23 226 l-21 52 25 603
c118 2924 124 3076 138 3134 25 100 43 143 148 340 126 238 137 257 150 249 5
-3 54 -95 108 -204z m458 -175 c64 -88 124 -176 134 -195 15 -33 92 -489 83
-498 -2 -3 -86 161 -187 362 l-183 367 -4 82 -3 82 22 -20 c12 -11 74 -92 138
-180z m-2558 80 c0 -16 -104 -155 -634 -850 -686 -899 -1089 -1427 -1215
-1593 -76 -101 -148 -186 -168 -198 -54 -34 -80 -62 -170 -186 -47 -65 -89
-118 -94 -118 -23 0 -447 408 -486 467 -14 21 -14 26 3 50 9 15 55 67 100 115
57 59 86 99 93 125 6 21 19 50 28 64 10 15 351 363 758 774 407 411 744 754
748 761 17 29 225 210 292 253 38 25 196 105 350 179 375 179 395 187 395 157z
m4335 -190 c166 -80 173 -85 295 -197 1067 -975 1742 -1588 1750 -1588 6 0 10
-15 10 -34 0 -31 10 -44 98 -123 53 -48 121 -108 150 -132 28 -24 52 -50 52
-58 0 -25 -405 -457 -501 -534 l-36 -28 -84 97 c-47 53 -106 125 -131 158 -37
48 -55 63 -82 68 -30 6 -47 25 -159 179 -103 143 -1229 1706 -1569 2179 -54
75 -98 141 -98 147 0 11 64 -17 305 -134z m-3423 -396 c-5 -95 -102 -761 -123
-844 -33 -127 -70 -211 -234 -520 -84 -159 -314 -594 -510 -965 -295 -559
-364 -682 -400 -715 -31 -30 -63 -81 -120 -195 -43 -85 -81 -165 -84 -177 -6
-20 -7 -21 -51 -6 -62 20 -518 245 -552 272 l-28 22 25 48 c13 27 51 90 84
141 42 64 62 107 67 139 4 25 10 56 15 67 4 12 176 271 382 575 205 305 613
910 907 1344 293 435 548 809 567 833 20 24 40 41 47 39 7 -3 10 -24 8 -58z
m1628 -180 c50 -95 149 -291 220 -434 l129 -260 76 -490 c253 -1641 297 -1923
310 -1947 11 -23 11 -27 -1 -32 -33 -13 -32 -50 2 -246 18 -107 30 -198 26
-201 -7 -6 -263 -57 -392 -78 -204 -33 -274 -38 -285 -21 -3 5 -10 68 -15 138
-7 109 -12 137 -34 181 l-27 52 -29 817 c-16 449 -43 1197 -59 1662 -17 465
-33 895 -36 955 -8 140 -5 137 115 -96z m2800 103 c725 -343 1502 -708 1530
-718 22 -7 36 -20 38 -32 5 -31 27 -45 175 -112 76 -35 140 -66 142 -70 9 -14
-303 -463 -336 -483 -20 -12 -88 33 -204 136 -75 66 -93 77 -124 77 -40 0 60
-89 -1024 909 -224 206 -407 378 -407 383 0 8 37 -8 210 -90z m-6755 -34 c-15
-18 -304 -316 -643 -663 -494 -506 -623 -633 -655 -645 -29 -10 -75 -49 -149
-125 l-109 -110 -48 52 c-59 63 -259 328 -330 438 l-52 80 28 23 c15 12 73 45
128 73 72 36 113 65 145 100 43 47 84 68 840 428 437 208 809 383 825 388 44
15 52 -1 20 -39z m5328 -1248 c510 -701 939 -1290 956 -1308 24 -27 28 -40 24
-66 -5 -30 6 -47 106 -180 61 -80 111 -150 111 -156 0 -20 -571 -317 -621
-323 -25 -2 -69 58 -153 212 -28 52 -59 98 -68 103 -60 28 -3 -79 -706 1323
l-492 980 -50 335 c-52 352 -56 380 -41 365 5 -6 425 -584 934 -1285z m-2455
1144 c3 -52 -20 -779 -48 -1494 -5 -140 -21 -586 -35 -990 -24 -705 -26 -737
-47 -783 -20 -44 -22 -65 -23 -238 l0 -189 -55 0 c-60 0 -260 27 -454 61
l-123 22 -7 194 c-4 106 -12 207 -18 224 -13 38 -6 139 22 309 35 216 59 381
75 510 16 131 148 1048 191 1329 27 175 56 280 108 395 39 85 341 649 368 689
29 40 43 29 46 -39z m1907 -1579 c98 -192 217 -426 265 -520 48 -93 156 -305
240 -470 84 -165 161 -310 172 -321 13 -14 16 -24 9 -29 -27 -16 -8 -74 69
-220 44 -82 80 -153 80 -156 0 -17 -314 -126 -592 -205 -21 -6 -52 86 -68 201
-17 118 -28 152 -56 172 -25 19 -28 35 -164 934 -76 502 -141 929 -144 948 -3
19 -2 30 3 25 5 -5 88 -166 186 -359z m-2688 118 c-3 -49 -40 -322 -82 -608
-103 -703 -101 -693 -120 -840 -9 -71 -24 -146 -32 -165 -31 -72 -43 -129 -63
-285 -12 -88 -24 -163 -28 -167 -10 -10 -94 11 -292 71 -174 53 -347 114 -361
128 -10 10 30 112 91 233 31 61 45 103 50 150 7 61 30 109 388 777 209 391
392 730 407 752 40 64 49 54 42 -46z"/>
<path d="M10383 10825 c-202 -44 -374 -211 -428 -415 -19 -72 -19 -221 0 -295
51 -195 229 -365 424 -406 87 -18 233 -7 313 24 226 87 369 291 370 532 2 168
-50 294 -167 410 -138 137 -322 191 -512 150z m185 -319 c53 -27 102 -76 130
-130 36 -68 38 -180 5 -242 -66 -125 -216 -162 -333 -83 -170 115 -170 362 0
452 47 25 63 28 111 24 31 -3 70 -12 87 -21z"/>
<path d="M10448 10441 c-137 -44 -179 -188 -84 -289 55 -60 125 -81 198 -62
159 43 186 242 44 325 -47 28 -117 39 -158 26z"/>
<path d="M18244 15175 c-4 -9 -2 -21 4 -27 16 -16 47 -5 47 17 0 26 -42 34
-51 10z"/>
</g>
</svg>
